<svg width="48" height="43" viewBox="0 0 48 43" fill="none" xmlns="http://www.w3.org/2000/svg">
<g id="Frame" clip-path="url(#clip0_6_555)">
<path id="barchart-alt" d="M30 5C30 2.51562 27.9844 0.5 25.5 0.5H22.5C20.0156 0.5 18 2.51562 18 5V38C18 40.4844 20.0156 42.5 22.5 42.5H25.5C27.9844 42.5 30 40.4844 30 38L30 5ZM45 23C45 20.5156 42.9844 18.5 40.5 18.5H37.5C35.0156 18.5 33 20.5156 33 23V38C33 40.4844 35.0156 42.5 37.5 42.5H40.5C42.9844 42.5 45 40.4844 45 38V23ZM10.5 6.5H7.5C5.01563 6.5 3 8.51562 3 11L3 38C3 40.4844 5.01562 42.5 7.5 42.5H10.5C12.9844 42.5 15 40.4844 15 38L15 11C15 8.51562 12.9844 6.5 10.5 6.5Z" fill="white"/>
</g>
<defs>
<clipPath id="clip0_6_555">
<rect width="42" height="48" fill="white" transform="matrix(0 -1 1 0 0 42.5)"/>
</clipPath>
</defs>
</svg>
