<svg width="54" height="49" viewBox="0 0 54 49" fill="none" xmlns="http://www.w3.org/2000/svg">
<g id="Frame">
<path id="checkbox" d="M13.5 8V34.25H40.5V8H13.5ZM9 34.25V8V3.5H13.5H40.5H45V8V34.25H47.25V38.75H45H40.5H13.5H9H6.75V34.25H9ZM6 27.5V32H4.5V41H49.5V32H48V27.5H49.5H54V32V41V45.5H49.5H4.5H0V41V32V27.5H4.5H6ZM36.0938 17.3375L26.0906 27.3406L24.4969 28.9344L22.9031 27.3406L17.9062 22.3438L16.3125 20.75L19.5 17.5719L21.0938 19.1656L24.5062 22.5781L32.9062 14.1594L34.5 12.5656L37.6781 15.7438L36.0844 17.3375H36.0938Z" fill="white"/>
</g>
</svg>
